# File created by Blade
# Date/Time:  Thu Jan 22 19:24:19 2015
# Frame Rate: 120.000 fps
#------------------------------------------------------
:FULLY-SPECIFIED
:DEGREES
2927
root -2.140779 33.205563 -4.035110 8.056943 -10.418755 2.257595
RightUpLeg -3.186999 -4.351188 -1.489761
RightLeg 1.938395 -0.000000 -0.000000
RightFoot -12.912782 0.537017 5.273385
RightToeBase 7.650302 -0.000000 -0.000000
LeftUpLeg -3.058896 2.618557 -4.056417
LeftLeg 2.347476 -0.000000 -0.000000
LeftFoot -12.385973 6.314350 -12.325843
LeftToeBase 7.844623 -0.000000 -0.000000
Spine -7.691115 -1.233673 -1.091772
RightShoulder -18.042787 -13.705714 -24.384797
RightArm 19.292163 27.348569 47.325430
RightForeArm -9.971592 -0.000000 17.882296
RightHand 14.436395 -0.000000 0.295687
RightHandThumb1 -24.326973 -0.000000 -32.862282
LeftShoulder -24.282038 6.009952 28.193574
LeftArm 10.840607 -31.327854 -46.098885
LeftForeArm 12.350301 -0.000000 2.361270
LeftHand 0.835613 -0.000000 1.775720
LeftHandThumb1 -26.253704 0.000000 33.147579
Head -7.607780 8.330931 -4.157592
2928
root -2.200183 33.204236 -4.023322 8.004391 -10.360084 2.290072
RightUpLeg -3.121736 -4.320325 -1.423334
RightLeg 2.004874 -0.000000 -0.000000
RightFoot -13.002211 0.440214 5.174072
RightToeBase 7.676101 -0.000000 -0.000000
LeftUpLeg -3.045697 2.635631 -3.987002
LeftLeg 2.470951 -0.000000 -0.000000
LeftFoot -12.451982 6.270826 -12.414776
LeftToeBase 7.843515 -0.000000 -0.000000
Spine -7.683773 -1.293766 -1.111753
RightShoulder -18.039685 -13.692363 -24.363692
RightArm 19.281871 27.302745 47.214187
RightForeArm -9.914641 -0.000000 17.966913
RightHand 14.447254 -0.000000 0.383596
RightHandThumb1 -24.326973 -0.000000 -32.862282
LeftShoulder -24.244254 5.933061 28.277972
LeftArm 10.736858 -31.298225 -46.053555
LeftForeArm 12.299677 -0.000000 2.335794
LeftHand 0.789702 -0.000000 1.819758
LeftHandThumb1 -26.253704 0.000000 33.147579
Head -7.510602 8.269639 -4.138306
2929
root -2.258607 33.203577 -4.011543 7.952778 -10.273375 2.317491
RightUpLeg -3.055555 -4.302697 -1.352481
RightLeg 2.080860 -0.000000 -0.000000
RightFoot -13.087298 0.338788 5.099344
RightToeBase 7.639588 -0.000000 -0.000000
LeftUpLeg -3.013523 2.543644 -3.903705
LeftLeg 2.573149 -0.000000 -0.000000
LeftFoot -12.492093 6.295637 -12.406870
LeftToeBase 7.942010 -0.000000 -0.000000
Spine -7.682500 -1.349831 -1.120252
RightShoulder -18.052155 -13.696956 -24.345070
RightArm 19.288146 27.364850 47.149336
RightForeArm -9.980443 -0.000000 18.025470
RightHand 14.481238 -0.000000 0.306874
RightHandThumb1 -24.326973 -0.000000 -32.862282
LeftShoulder -24.273226 6.021253 28.243958
LeftArm 10.945048 -31.393143 -46.123714
LeftForeArm 12.336309 -0.000000 2.278240
LeftHand 0.705526 -0.000000 1.799964
LeftHandThumb1 -26.253704 0.000000 33.147579
Head -7.380162 8.318774 -4.078201
2930
root -2.316173 33.201690 -3.999684 7.901402 -10.173560 2.351192
RightUpLeg -2.967723 -4.257159 -1.289924
RightLeg 2.112311 -0.000000 -0.000000
RightFoot -13.178904 0.215860 5.054670
RightToeBase 7.673396 -0.000000 -0.000000
LeftUpLeg -3.000293 2.569539 -3.823136
LeftLeg 2.702225 -0.000000 -0.000000
LeftFoot -12.520971 6.154710 -12.478075
LeftToeBase 7.777540 -0.000000 -0.000000
Spine -7.676376 -1.421872 -1.121446
RightShoulder -18.053625 -13.710594 -24.363908
RightArm 19.245895 27.354255 47.074213
RightForeArm -9.940425 0.000000 18.117270
RightHand 14.518853 -0.000000 0.139350
RightHandThumb1 -24.326973 -0.000000 -32.862282
LeftShoulder -24.217489 5.937876 28.278037
LeftArm 10.842991 -31.333764 -46.013532
LeftForeArm 12.209382 -0.000000 2.277973
LeftHand 0.726748 -0.000000 1.938807
LeftHandThumb1 -26.253704 0.000000 33.147579
Head -7.285356 8.419412 -4.071104
2931
root -2.372931 33.199598 -3.987537 7.861374 -10.016605 2.383147
RightUpLeg -2.843084 -4.201873 -1.226568
RightLeg 2.071322 -0.000000 -0.000000
RightFoot -13.236254 0.050594 5.014897
RightToeBase 7.690961 -0.000000 -0.000000
LeftUpLeg -2.996972 2.505068 -3.754061
LeftLeg 2.812081 -0.000000 -0.000000
LeftFoot -12.551191 6.147758 -12.448230
LeftToeBase 7.703960 -0.000000 -0.000000
Spine -7.692329 -1.543539 -1.121971
RightShoulder -18.054071 -13.690809 -24.382318
RightArm 19.208018 27.394233 47.004631
RightForeArm -10.076825 -0.000000 18.136611
RightHand 14.580514 0.000000 0.095562
RightHandThumb1 -24.326973 -0.000000 -32.862282
LeftShoulder -24.194017 5.953416 28.289279
LeftArm 10.856899 -31.369401 -45.985488
LeftForeArm 12.107952 0.000000 2.344758
LeftHand 0.677745 -0.000000 1.952967
LeftHandThumb1 -26.253704 0.000000 33.147579
Head -7.163491 8.490580 -4.036626
